<?xml version="1.0" standalone="no"?>
<svg xmlns:xlink="http://www.w3.org/1999/xlink" id="wave" style="transform:rotate(0deg); transition: 0.3s" viewBox="0 0 1440 490" version="1.1" xmlns="http://www.w3.org/2000/svg"><defs><linearGradient id="sw-gradient-0" x1="0" x2="0" y1="1" y2="0"><stop stop-color="rgba(42.828, 84.446, 187.017, 1)" offset="0%"/><stop stop-color="rgba(143.145, 151.364, 212.061, 1)" offset="100%"/></linearGradient></defs><path style="transform:translate(0, 0px); opacity:1" fill="url(#sw-gradient-0)" d="M0,196L48,171.5C96,147,192,98,288,130.7C384,163,480,278,576,294C672,310,768,229,864,163.3C960,98,1056,49,1152,40.8C1248,33,1344,65,1440,73.5C1536,82,1632,65,1728,114.3C1824,163,1920,278,2016,294C2112,310,2208,229,2304,236.8C2400,245,2496,343,2592,375.7C2688,408,2784,376,2880,367.5C2976,359,3072,376,3168,383.8C3264,392,3360,392,3456,351.2C3552,310,3648,229,3744,204.2C3840,180,3936,212,4032,204.2C4128,196,4224,147,4320,122.5C4416,98,4512,98,4608,114.3C4704,131,4800,163,4896,171.5C4992,180,5088,163,5184,147C5280,131,5376,114,5472,163.3C5568,212,5664,327,5760,343C5856,359,5952,278,6048,245C6144,212,6240,229,6336,196C6432,163,6528,82,6624,73.5C6720,65,6816,131,6864,163.3L6912,196L6912,490L6864,490C6816,490,6720,490,6624,490C6528,490,6432,490,6336,490C6240,490,6144,490,6048,490C5952,490,5856,490,5760,490C5664,490,5568,490,5472,490C5376,490,5280,490,5184,490C5088,490,4992,490,4896,490C4800,490,4704,490,4608,490C4512,490,4416,490,4320,490C4224,490,4128,490,4032,490C3936,490,3840,490,3744,490C3648,490,3552,490,3456,490C3360,490,3264,490,3168,490C3072,490,2976,490,2880,490C2784,490,2688,490,2592,490C2496,490,2400,490,2304,490C2208,490,2112,490,2016,490C1920,490,1824,490,1728,490C1632,490,1536,490,1440,490C1344,490,1248,490,1152,490C1056,490,960,490,864,490C768,490,672,490,576,490C480,490,384,490,288,490C192,490,96,490,48,490L0,490Z"/></svg>